<svg xmlns="http://www.w3.org/2000/svg" xmlns:xlink="http://www.w3.org/1999/xlink" width="500" zoomAndPan="magnify" viewBox="0 0 375 374.999991" height="500" preserveAspectRatio="xMidYMid meet" version="1.2"><defs><clipPath id="72c8a0973f"><path d="M 72.90625 72.90625 L 175 72.90625 L 175 175 L 72.90625 175 Z M 72.90625 72.90625 "/></clipPath><clipPath id="309937ec66"><path d="M 200 72.90625 L 302.40625 72.90625 L 302.40625 175 L 200 175 Z M 200 72.90625 "/></clipPath><clipPath id="5720db4cf8"><path d="M 72.90625 200 L 175 200 L 175 302.40625 L 72.90625 302.40625 Z M 72.90625 200 "/></clipPath><clipPath id="e606873241"><path d="M 200 200 L 302.40625 200 L 302.40625 302.40625 L 200 302.40625 Z M 200 200 "/></clipPath></defs><g id="217bd7f8b6"><rect x="0" width="375" y="0" height="374.999991" style="fill:#ffffff;fill-opacity:1;stroke:none;"/><rect x="0" width="375" y="0" height="374.999991" style="fill:#ecf8ff;fill-opacity:1;stroke:none;"/><g clip-rule="nonzero" clip-path="url(#72c8a0973f)"><path style=" stroke:none;fill-rule:nonzero;fill:#2563eb;fill-opacity:1;" d="M 168.398438 72.90625 L 79.273438 72.90625 C 78.855469 72.90625 78.441406 72.949219 78.03125 73.027344 C 77.621094 73.109375 77.222656 73.230469 76.835938 73.390625 C 76.449219 73.550781 76.082031 73.746094 75.734375 73.980469 C 75.386719 74.210938 75.066406 74.476562 74.769531 74.769531 C 74.476562 75.066406 74.210938 75.386719 73.980469 75.734375 C 73.746094 76.082031 73.550781 76.449219 73.390625 76.835938 C 73.230469 77.222656 73.109375 77.621094 73.027344 78.03125 C 72.949219 78.441406 72.90625 78.855469 72.90625 79.273438 L 72.90625 168.398438 C 72.90625 168.816406 72.949219 169.230469 73.027344 169.640625 C 73.109375 170.050781 73.230469 170.449219 73.390625 170.835938 C 73.550781 171.222656 73.746094 171.589844 73.980469 171.9375 C 74.210938 172.285156 74.476562 172.605469 74.769531 172.902344 C 75.066406 173.195312 75.386719 173.460938 75.734375 173.691406 C 76.082031 173.925781 76.449219 174.121094 76.835938 174.28125 C 77.222656 174.441406 77.621094 174.5625 78.03125 174.644531 C 78.441406 174.726562 78.855469 174.765625 79.273438 174.765625 L 168.398438 174.765625 C 168.816406 174.765625 169.230469 174.726562 169.640625 174.644531 C 170.050781 174.5625 170.449219 174.441406 170.835938 174.28125 C 171.222656 174.121094 171.589844 173.925781 171.9375 173.691406 C 172.285156 173.460938 172.605469 173.195312 172.902344 172.902344 C 173.195312 172.605469 173.460938 172.285156 173.691406 171.9375 C 173.925781 171.589844 174.121094 171.222656 174.28125 170.835938 C 174.441406 170.449219 174.5625 170.050781 174.644531 169.640625 C 174.726562 169.230469 174.765625 168.816406 174.765625 168.398438 L 174.765625 79.273438 C 174.765625 78.855469 174.726562 78.441406 174.644531 78.03125 C 174.5625 77.621094 174.441406 77.222656 174.28125 76.835938 C 174.121094 76.449219 173.925781 76.082031 173.691406 75.734375 C 173.460938 75.386719 173.195312 75.066406 172.902344 74.769531 C 172.605469 74.476562 172.285156 74.210938 171.9375 73.980469 C 171.589844 73.746094 171.222656 73.550781 170.835938 73.390625 C 170.449219 73.230469 170.050781 73.109375 169.640625 73.027344 C 169.230469 72.949219 168.816406 72.90625 168.398438 72.90625 Z M 162.035156 162.035156 L 85.640625 162.035156 L 85.640625 85.640625 L 162.035156 85.640625 Z M 162.035156 162.035156 "/></g><g clip-rule="nonzero" clip-path="url(#309937ec66)"><path style=" stroke:none;fill-rule:nonzero;fill:#2563eb;fill-opacity:1;" d="M 295.722656 72.90625 L 206.597656 72.90625 C 206.179688 72.90625 205.765625 72.949219 205.355469 73.027344 C 204.945312 73.109375 204.546875 73.230469 204.160156 73.390625 C 203.773438 73.550781 203.40625 73.746094 203.058594 73.980469 C 202.710938 74.210938 202.390625 74.476562 202.09375 74.769531 C 201.800781 75.066406 201.535156 75.386719 201.304688 75.734375 C 201.070312 76.082031 200.875 76.449219 200.714844 76.835938 C 200.554688 77.222656 200.433594 77.621094 200.351562 78.03125 C 200.273438 78.441406 200.230469 78.855469 200.230469 79.273438 L 200.230469 168.398438 C 200.230469 168.816406 200.273438 169.230469 200.351562 169.640625 C 200.433594 170.050781 200.554688 170.449219 200.714844 170.835938 C 200.875 171.222656 201.070312 171.589844 201.304688 171.9375 C 201.535156 172.285156 201.800781 172.605469 202.09375 172.902344 C 202.390625 173.195312 202.710938 173.460938 203.058594 173.691406 C 203.40625 173.925781 203.773438 174.121094 204.160156 174.28125 C 204.546875 174.441406 204.945312 174.5625 205.355469 174.644531 C 205.765625 174.726562 206.179688 174.765625 206.597656 174.765625 L 295.722656 174.765625 C 296.140625 174.765625 296.554688 174.726562 296.964844 174.644531 C 297.375 174.5625 297.773438 174.441406 298.160156 174.28125 C 298.546875 174.121094 298.914062 173.925781 299.261719 173.691406 C 299.609375 173.460938 299.929688 173.195312 300.226562 172.902344 C 300.519531 172.605469 300.785156 172.285156 301.015625 171.9375 C 301.25 171.589844 301.445312 171.222656 301.605469 170.835938 C 301.765625 170.449219 301.886719 170.050781 301.96875 169.640625 C 302.050781 169.230469 302.089844 168.816406 302.089844 168.398438 L 302.089844 79.273438 C 302.089844 78.855469 302.050781 78.441406 301.96875 78.03125 C 301.886719 77.621094 301.765625 77.222656 301.605469 76.835938 C 301.445312 76.449219 301.25 76.082031 301.015625 75.734375 C 300.785156 75.386719 300.519531 75.066406 300.226562 74.769531 C 299.929688 74.476562 299.609375 74.210938 299.261719 73.980469 C 298.914062 73.746094 298.546875 73.550781 298.160156 73.390625 C 297.773438 73.230469 297.375 73.109375 296.964844 73.027344 C 296.554688 72.949219 296.140625 72.90625 295.722656 72.90625 Z M 289.359375 162.035156 L 212.964844 162.035156 L 212.964844 85.640625 L 289.359375 85.640625 Z M 289.359375 162.035156 "/></g><g clip-rule="nonzero" clip-path="url(#5720db4cf8)"><path style=" stroke:none;fill-rule:nonzero;fill:#2563eb;fill-opacity:1;" d="M 168.398438 200.230469 L 79.273438 200.230469 C 78.855469 200.230469 78.441406 200.273438 78.03125 200.351562 C 77.621094 200.433594 77.222656 200.554688 76.835938 200.714844 C 76.449219 200.875 76.082031 201.070312 75.734375 201.304688 C 75.386719 201.535156 75.066406 201.800781 74.769531 202.09375 C 74.476562 202.390625 74.210938 202.710938 73.980469 203.058594 C 73.746094 203.40625 73.550781 203.773438 73.390625 204.160156 C 73.230469 204.546875 73.109375 204.945312 73.027344 205.355469 C 72.949219 205.765625 72.90625 206.179688 72.90625 206.597656 L 72.90625 295.722656 C 72.90625 296.140625 72.949219 296.554688 73.027344 296.964844 C 73.109375 297.375 73.230469 297.773438 73.390625 298.160156 C 73.550781 298.546875 73.746094 298.914062 73.980469 299.261719 C 74.210938 299.609375 74.476562 299.929688 74.769531 300.226562 C 75.066406 300.519531 75.386719 300.785156 75.734375 301.015625 C 76.082031 301.25 76.449219 301.445312 76.835938 301.605469 C 77.222656 301.765625 77.621094 301.886719 78.03125 301.96875 C 78.441406 302.050781 78.855469 302.089844 79.273438 302.089844 L 168.398438 302.089844 C 168.816406 302.089844 169.230469 302.050781 169.640625 301.96875 C 170.050781 301.886719 170.449219 301.765625 170.835938 301.605469 C 171.222656 301.445312 171.589844 301.25 171.9375 301.015625 C 172.285156 300.785156 172.605469 300.519531 172.902344 300.226562 C 173.195312 299.929688 173.460938 299.609375 173.691406 299.261719 C 173.925781 298.914062 174.121094 298.546875 174.28125 298.160156 C 174.441406 297.773438 174.5625 297.375 174.644531 296.964844 C 174.726562 296.554688 174.765625 296.140625 174.765625 295.722656 L 174.765625 206.597656 C 174.765625 206.179688 174.726562 205.765625 174.644531 205.355469 C 174.5625 204.945312 174.441406 204.546875 174.28125 204.160156 C 174.121094 203.773438 173.925781 203.40625 173.691406 203.058594 C 173.460938 202.710938 173.195312 202.390625 172.902344 202.09375 C 172.605469 201.800781 172.285156 201.535156 171.9375 201.304688 C 171.589844 201.070312 171.222656 200.875 170.835938 200.714844 C 170.449219 200.554688 170.050781 200.433594 169.640625 200.351562 C 169.230469 200.273438 168.816406 200.230469 168.398438 200.230469 Z M 162.035156 289.359375 L 85.640625 289.359375 L 85.640625 212.964844 L 162.035156 212.964844 Z M 162.035156 289.359375 "/></g><g clip-rule="nonzero" clip-path="url(#e606873241)"><path style=" stroke:none;fill-rule:nonzero;fill:#2563eb;fill-opacity:1;" d="M 295.722656 200.230469 L 206.597656 200.230469 C 206.179688 200.230469 205.765625 200.273438 205.355469 200.351562 C 204.945312 200.433594 204.546875 200.554688 204.160156 200.714844 C 203.773438 200.875 203.40625 201.070312 203.058594 201.304688 C 202.710938 201.535156 202.390625 201.800781 202.09375 202.09375 C 201.800781 202.390625 201.535156 202.710938 201.304688 203.058594 C 201.070312 203.40625 200.875 203.773438 200.714844 204.160156 C 200.554688 204.546875 200.433594 204.945312 200.351562 205.355469 C 200.273438 205.765625 200.230469 206.179688 200.230469 206.597656 L 200.230469 295.722656 C 200.230469 296.140625 200.273438 296.554688 200.351562 296.964844 C 200.433594 297.375 200.554688 297.773438 200.714844 298.160156 C 200.875 298.546875 201.070312 298.914062 201.304688 299.261719 C 201.535156 299.609375 201.800781 299.929688 202.09375 300.226562 C 202.390625 300.519531 202.710938 300.785156 203.058594 301.015625 C 203.40625 301.25 203.773438 301.445312 204.160156 301.605469 C 204.546875 301.765625 204.945312 301.886719 205.355469 301.96875 C 205.765625 302.050781 206.179688 302.089844 206.597656 302.089844 L 295.722656 302.089844 C 296.140625 302.089844 296.554688 302.050781 296.964844 301.96875 C 297.375 301.886719 297.773438 301.765625 298.160156 301.605469 C 298.546875 301.445312 298.914062 301.25 299.261719 301.015625 C 299.609375 300.785156 299.929688 300.519531 300.226562 300.226562 C 300.519531 299.929688 300.785156 299.609375 301.015625 299.261719 C 301.25 298.914062 301.445312 298.546875 301.605469 298.160156 C 301.765625 297.773438 301.886719 297.375 301.96875 296.964844 C 302.050781 296.554688 302.089844 296.140625 302.089844 295.722656 L 302.089844 206.597656 C 302.089844 206.179688 302.050781 205.765625 301.96875 205.355469 C 301.886719 204.945312 301.765625 204.546875 301.605469 204.160156 C 301.445312 203.773438 301.25 203.40625 301.015625 203.058594 C 300.785156 202.710938 300.519531 202.390625 300.226562 202.09375 C 299.929688 201.800781 299.609375 201.535156 299.261719 201.304688 C 298.914062 201.070312 298.546875 200.875 298.160156 200.714844 C 297.773438 200.554688 297.375 200.433594 296.964844 200.351562 C 296.554688 200.273438 296.140625 200.230469 295.722656 200.230469 Z M 289.359375 289.359375 L 212.964844 289.359375 L 212.964844 212.964844 L 289.359375 212.964844 Z M 289.359375 289.359375 "/></g><path style=" stroke:none;fill-rule:nonzero;fill:#2563eb;fill-opacity:1;" d="M 107.921875 130.203125 L 117.46875 130.203125 L 117.46875 139.753906 C 117.46875 140.171875 117.511719 140.582031 117.59375 140.992188 C 117.675781 141.402344 117.792969 141.800781 117.953125 142.1875 C 118.113281 142.574219 118.3125 142.941406 118.542969 143.289062 C 118.773438 143.636719 119.039062 143.957031 119.335938 144.253906 C 119.628906 144.550781 119.953125 144.8125 120.300781 145.046875 C 120.648438 145.277344 121.015625 145.472656 121.398438 145.632812 C 121.785156 145.792969 122.183594 145.914062 122.59375 145.996094 C 123.003906 146.078125 123.417969 146.117188 123.835938 146.117188 C 124.253906 146.117188 124.667969 146.078125 125.078125 145.996094 C 125.488281 145.914062 125.886719 145.792969 126.273438 145.632812 C 126.660156 145.472656 127.027344 145.277344 127.375 145.046875 C 127.722656 144.8125 128.042969 144.550781 128.339844 144.253906 C 128.632812 143.957031 128.898438 143.636719 129.128906 143.289062 C 129.363281 142.941406 129.558594 142.574219 129.71875 142.1875 C 129.878906 141.800781 130 141.402344 130.082031 140.992188 C 130.160156 140.582031 130.203125 140.171875 130.203125 139.753906 L 130.203125 130.203125 L 139.753906 130.203125 C 140.171875 130.203125 140.582031 130.160156 140.992188 130.082031 C 141.402344 130 141.800781 129.878906 142.1875 129.71875 C 142.574219 129.558594 142.941406 129.363281 143.289062 129.128906 C 143.636719 128.898438 143.957031 128.632812 144.253906 128.339844 C 144.550781 128.042969 144.8125 127.722656 145.046875 127.375 C 145.277344 127.027344 145.472656 126.660156 145.632812 126.273438 C 145.792969 125.886719 145.914062 125.488281 145.996094 125.078125 C 146.078125 124.667969 146.117188 124.253906 146.117188 123.835938 C 146.117188 123.417969 146.078125 123.003906 145.996094 122.59375 C 145.914062 122.183594 145.792969 121.785156 145.632812 121.398438 C 145.472656 121.015625 145.277344 120.648438 145.046875 120.300781 C 144.8125 119.953125 144.550781 119.628906 144.253906 119.335938 C 143.957031 119.039062 143.636719 118.773438 143.289062 118.542969 C 142.941406 118.3125 142.574219 118.113281 142.1875 117.953125 C 141.800781 117.792969 141.402344 117.675781 140.992188 117.59375 C 140.582031 117.511719 140.171875 117.46875 139.753906 117.46875 L 130.203125 117.46875 L 130.203125 107.921875 C 130.203125 107.503906 130.160156 107.089844 130.082031 106.679688 C 130 106.269531 129.878906 105.871094 129.71875 105.484375 C 129.558594 105.097656 129.363281 104.730469 129.128906 104.382812 C 128.898438 104.035156 128.632812 103.714844 128.339844 103.417969 C 128.042969 103.125 127.722656 102.859375 127.375 102.628906 C 127.027344 102.394531 126.660156 102.199219 126.273438 102.039062 C 125.886719 101.878906 125.488281 101.757812 125.078125 101.675781 C 124.667969 101.59375 124.253906 101.554688 123.835938 101.554688 C 123.417969 101.554688 123.003906 101.59375 122.59375 101.675781 C 122.183594 101.757812 121.785156 101.878906 121.398438 102.039062 C 121.015625 102.199219 120.648438 102.394531 120.300781 102.628906 C 119.953125 102.859375 119.628906 103.125 119.335938 103.417969 C 119.039062 103.714844 118.773438 104.035156 118.542969 104.382812 C 118.3125 104.730469 118.113281 105.097656 117.953125 105.484375 C 117.792969 105.871094 117.675781 106.269531 117.59375 106.679688 C 117.511719 107.089844 117.46875 107.503906 117.46875 107.921875 L 117.46875 117.46875 L 107.921875 117.46875 C 107.503906 117.46875 107.089844 117.511719 106.679688 117.59375 C 106.269531 117.675781 105.871094 117.792969 105.484375 117.953125 C 105.097656 118.113281 104.730469 118.3125 104.382812 118.542969 C 104.035156 118.773438 103.714844 119.039062 103.417969 119.335938 C 103.125 119.628906 102.859375 119.953125 102.628906 120.300781 C 102.394531 120.648438 102.199219 121.015625 102.039062 121.398438 C 101.878906 121.785156 101.757812 122.183594 101.675781 122.59375 C 101.59375 123.003906 101.554688 123.417969 101.554688 123.835938 C 101.554688 124.253906 101.59375 124.667969 101.675781 125.078125 C 101.757812 125.488281 101.878906 125.886719 102.039062 126.273438 C 102.199219 126.660156 102.394531 127.027344 102.628906 127.375 C 102.859375 127.722656 103.125 128.042969 103.417969 128.339844 C 103.714844 128.632812 104.035156 128.898438 104.382812 129.128906 C 104.730469 129.363281 105.097656 129.558594 105.484375 129.71875 C 105.871094 129.878906 106.269531 130 106.679688 130.082031 C 107.089844 130.160156 107.503906 130.203125 107.921875 130.203125 Z M 107.921875 130.203125 "/><path style=" stroke:none;fill-rule:nonzero;fill:#2563eb;fill-opacity:1;" d="M 235.246094 130.203125 L 267.074219 130.203125 C 267.496094 130.203125 267.90625 130.160156 268.316406 130.082031 C 268.726562 130 269.125 129.878906 269.511719 129.71875 C 269.898438 129.558594 270.265625 129.363281 270.613281 129.128906 C 270.960938 128.898438 271.28125 128.632812 271.578125 128.339844 C 271.875 128.042969 272.136719 127.722656 272.371094 127.375 C 272.601562 127.027344 272.796875 126.660156 272.957031 126.273438 C 273.117188 125.886719 273.238281 125.488281 273.320312 125.078125 C 273.402344 124.667969 273.441406 124.253906 273.441406 123.835938 C 273.441406 123.417969 273.402344 123.003906 273.320312 122.59375 C 273.238281 122.183594 273.117188 121.785156 272.957031 121.398438 C 272.796875 121.015625 272.601562 120.648438 272.371094 120.300781 C 272.136719 119.953125 271.875 119.628906 271.578125 119.335938 C 271.28125 119.039062 270.960938 118.773438 270.613281 118.542969 C 270.265625 118.3125 269.898438 118.113281 269.511719 117.953125 C 269.125 117.792969 268.726562 117.675781 268.316406 117.59375 C 267.90625 117.511719 267.496094 117.46875 267.074219 117.46875 L 235.246094 117.46875 C 234.828125 117.46875 234.414062 117.511719 234.003906 117.59375 C 233.59375 117.675781 233.195312 117.792969 232.808594 117.953125 C 232.421875 118.113281 232.054688 118.3125 231.707031 118.542969 C 231.359375 118.773438 231.039062 119.039062 230.742188 119.335938 C 230.449219 119.628906 230.183594 119.953125 229.953125 120.300781 C 229.71875 120.648438 229.523438 121.015625 229.363281 121.398438 C 229.203125 121.785156 229.082031 122.183594 229 122.59375 C 228.917969 123.003906 228.878906 123.417969 228.878906 123.835938 C 228.878906 124.253906 228.917969 124.667969 229 125.078125 C 229.082031 125.488281 229.203125 125.886719 229.363281 126.273438 C 229.523438 126.660156 229.71875 127.027344 229.953125 127.375 C 230.183594 127.722656 230.449219 128.042969 230.742188 128.339844 C 231.039062 128.632812 231.359375 128.898438 231.707031 129.128906 C 232.054688 129.363281 232.421875 129.558594 232.808594 129.71875 C 233.195312 129.878906 233.59375 130 234.003906 130.082031 C 234.414062 130.160156 234.828125 130.203125 235.246094 130.203125 Z M 235.246094 130.203125 "/><path style=" stroke:none;fill-rule:nonzero;fill:#2563eb;fill-opacity:1;" d="M 235.246094 270.257812 L 267.074219 270.257812 C 267.496094 270.257812 267.90625 270.21875 268.316406 270.136719 C 268.726562 270.054688 269.125 269.933594 269.511719 269.773438 C 269.898438 269.613281 270.265625 269.417969 270.613281 269.1875 C 270.960938 268.953125 271.28125 268.691406 271.578125 268.394531 C 271.875 268.097656 272.136719 267.777344 272.371094 267.429688 C 272.601562 267.082031 272.796875 266.714844 272.957031 266.328125 C 273.117188 265.941406 273.238281 265.546875 273.320312 265.136719 C 273.402344 264.726562 273.441406 264.3125 273.441406 263.894531 C 273.441406 263.476562 273.402344 263.0625 273.320312 262.652344 C 273.238281 262.242188 273.117188 261.84375 272.957031 261.457031 C 272.796875 261.070312 272.601562 260.703125 272.371094 260.355469 C 272.136719 260.007812 271.875 259.6875 271.578125 259.390625 C 271.28125 259.097656 270.960938 258.832031 270.613281 258.601562 C 270.265625 258.367188 269.898438 258.171875 269.511719 258.011719 C 269.125 257.851562 268.726562 257.730469 268.316406 257.648438 C 267.90625 257.566406 267.496094 257.527344 267.074219 257.527344 L 235.246094 257.527344 C 234.828125 257.527344 234.414062 257.566406 234.003906 257.648438 C 233.59375 257.730469 233.195312 257.851562 232.808594 258.011719 C 232.421875 258.171875 232.054688 258.367188 231.707031 258.601562 C 231.359375 258.832031 231.039062 259.097656 230.742188 259.390625 C 230.449219 259.6875 230.183594 260.007812 229.953125 260.355469 C 229.71875 260.703125 229.523438 261.070312 229.363281 261.457031 C 229.203125 261.84375 229.082031 262.242188 229 262.652344 C 228.917969 263.0625 228.878906 263.476562 228.878906 263.894531 C 228.878906 264.3125 228.917969 264.726562 229 265.136719 C 229.082031 265.546875 229.203125 265.941406 229.363281 266.328125 C 229.523438 266.714844 229.71875 267.082031 229.953125 267.429688 C 230.183594 267.777344 230.449219 268.097656 230.742188 268.394531 C 231.039062 268.691406 231.359375 268.953125 231.707031 269.1875 C 232.054688 269.417969 232.421875 269.613281 232.808594 269.773438 C 233.195312 269.933594 233.59375 270.054688 234.003906 270.136719 C 234.414062 270.21875 234.828125 270.257812 235.246094 270.257812 Z M 235.246094 270.257812 "/><path style=" stroke:none;fill-rule:nonzero;fill:#2563eb;fill-opacity:1;" d="M 235.246094 244.792969 L 267.074219 244.792969 C 267.496094 244.792969 267.90625 244.753906 268.316406 244.671875 C 268.726562 244.589844 269.125 244.46875 269.511719 244.308594 C 269.898438 244.148438 270.265625 243.953125 270.613281 243.722656 C 270.960938 243.488281 271.28125 243.226562 271.578125 242.929688 C 271.875 242.632812 272.136719 242.3125 272.371094 241.964844 C 272.601562 241.617188 272.796875 241.25 272.957031 240.863281 C 273.117188 240.476562 273.238281 240.082031 273.320312 239.671875 C 273.402344 239.261719 273.441406 238.847656 273.441406 238.429688 C 273.441406 238.011719 273.402344 237.597656 273.320312 237.1875 C 273.238281 236.777344 273.117188 236.378906 272.957031 235.992188 C 272.796875 235.605469 272.601562 235.238281 272.371094 234.890625 C 272.136719 234.542969 271.875 234.222656 271.578125 233.925781 C 271.28125 233.632812 270.960938 233.367188 270.613281 233.136719 C 270.265625 232.902344 269.898438 232.707031 269.511719 232.546875 C 269.125 232.386719 268.726562 232.265625 268.316406 232.183594 C 267.90625 232.101562 267.496094 232.0625 267.074219 232.0625 L 235.246094 232.0625 C 234.828125 232.0625 234.414062 232.101562 234.003906 232.183594 C 233.59375 232.265625 233.195312 232.386719 232.808594 232.546875 C 232.421875 232.707031 232.054688 232.902344 231.707031 233.136719 C 231.359375 233.367188 231.039062 233.632812 230.742188 233.925781 C 230.449219 234.222656 230.183594 234.542969 229.953125 234.890625 C 229.71875 235.238281 229.523438 235.605469 229.363281 235.992188 C 229.203125 236.378906 229.082031 236.777344 229 237.1875 C 228.917969 237.597656 228.878906 238.011719 228.878906 238.429688 C 228.878906 238.847656 228.917969 239.261719 229 239.671875 C 229.082031 240.082031 229.203125 240.476562 229.363281 240.863281 C 229.523438 241.25 229.71875 241.617188 229.953125 241.964844 C 230.183594 242.3125 230.449219 242.632812 230.742188 242.929688 C 231.039062 243.226562 231.359375 243.488281 231.707031 243.722656 C 232.054688 243.953125 232.421875 244.148438 232.808594 244.308594 C 233.195312 244.46875 233.59375 244.589844 234.003906 244.671875 C 234.414062 244.753906 234.828125 244.792969 235.246094 244.792969 Z M 235.246094 244.792969 "/><path style=" stroke:none;fill-rule:nonzero;fill:#2563eb;fill-opacity:1;" d="M 106.589844 268.40625 C 106.886719 268.703125 107.210938 268.964844 107.558594 269.195312 C 107.910156 269.425781 108.277344 269.621094 108.664062 269.78125 C 109.050781 269.9375 109.449219 270.058594 109.859375 270.140625 C 110.269531 270.21875 110.6875 270.261719 111.105469 270.261719 C 111.523438 270.261719 111.9375 270.21875 112.347656 270.140625 C 112.757812 270.058594 113.15625 269.9375 113.542969 269.78125 C 113.929688 269.621094 114.300781 269.425781 114.648438 269.195312 C 114.996094 268.964844 115.320312 268.703125 115.617188 268.40625 L 123.835938 260.1875 L 132.054688 268.40625 C 132.351562 268.703125 132.675781 268.964844 133.023438 269.195312 C 133.375 269.425781 133.742188 269.621094 134.128906 269.78125 C 134.515625 269.9375 134.914062 270.058594 135.324219 270.140625 C 135.734375 270.21875 136.152344 270.261719 136.570312 270.261719 C 136.988281 270.261719 137.402344 270.21875 137.8125 270.140625 C 138.222656 270.058594 138.621094 269.9375 139.007812 269.78125 C 139.394531 269.621094 139.765625 269.425781 140.113281 269.195312 C 140.460938 268.964844 140.785156 268.703125 141.082031 268.40625 C 141.378906 268.113281 141.644531 267.789062 141.878906 267.441406 C 142.113281 267.09375 142.3125 266.726562 142.472656 266.335938 C 142.632812 265.949219 142.753906 265.550781 142.835938 265.140625 C 142.917969 264.726562 142.960938 264.3125 142.960938 263.894531 C 142.960938 263.472656 142.917969 263.058594 142.835938 262.648438 C 142.753906 262.234375 142.632812 261.835938 142.472656 261.449219 C 142.3125 261.0625 142.113281 260.695312 141.878906 260.34375 C 141.644531 259.996094 141.378906 259.675781 141.082031 259.378906 L 132.863281 251.160156 L 141.082031 242.941406 C 141.378906 242.644531 141.644531 242.324219 141.875 241.976562 C 142.109375 241.625 142.304688 241.257812 142.464844 240.871094 C 142.625 240.484375 142.746094 240.085938 142.828125 239.675781 C 142.910156 239.261719 142.949219 238.847656 142.949219 238.429688 C 142.949219 238.011719 142.910156 237.59375 142.828125 237.183594 C 142.746094 236.773438 142.625 236.375 142.464844 235.988281 C 142.300781 235.601562 142.105469 235.234375 141.875 234.882812 C 141.640625 234.535156 141.375 234.214844 141.078125 233.917969 C 140.785156 233.621094 140.460938 233.355469 140.113281 233.125 C 139.765625 232.890625 139.398438 232.695312 139.007812 232.535156 C 138.621094 232.375 138.222656 232.253906 137.8125 232.171875 C 137.402344 232.089844 136.988281 232.046875 136.566406 232.046875 C 136.148438 232.046875 135.734375 232.089844 135.324219 232.167969 C 134.910156 232.25 134.511719 232.371094 134.125 232.53125 C 133.738281 232.691406 133.371094 232.886719 133.023438 233.121094 C 132.671875 233.355469 132.351562 233.617188 132.054688 233.914062 L 123.835938 242.132812 L 115.617188 233.914062 C 115.320312 233.617188 115 233.351562 114.652344 233.117188 C 114.300781 232.886719 113.933594 232.6875 113.546875 232.527344 C 113.160156 232.367188 112.761719 232.246094 112.347656 232.164062 C 111.9375 232.082031 111.523438 232.039062 111.101562 232.039062 C 110.683594 232.039062 110.269531 232.082031 109.855469 232.164062 C 109.445312 232.246094 109.046875 232.367188 108.660156 232.527344 C 108.269531 232.6875 107.902344 232.882812 107.554688 233.117188 C 107.207031 233.347656 106.882812 233.613281 106.585938 233.910156 C 106.289062 234.207031 106.023438 234.53125 105.792969 234.878906 C 105.558594 235.226562 105.363281 235.59375 105.203125 235.984375 C 105.042969 236.371094 104.921875 236.769531 104.839844 237.179688 C 104.757812 237.59375 104.714844 238.007812 104.714844 238.425781 C 104.714844 238.847656 104.757812 239.261719 104.839844 239.671875 C 104.921875 240.085938 105.042969 240.484375 105.203125 240.871094 C 105.363281 241.257812 105.5625 241.625 105.792969 241.976562 C 106.027344 242.324219 106.292969 242.644531 106.589844 242.941406 L 114.808594 251.160156 L 106.589844 259.378906 C 106.292969 259.675781 106.027344 259.996094 105.792969 260.34375 C 105.558594 260.695312 105.363281 261.0625 105.199219 261.449219 C 105.039062 261.835938 104.917969 262.234375 104.835938 262.648438 C 104.753906 263.058594 104.710938 263.472656 104.710938 263.894531 C 104.710938 264.3125 104.753906 264.726562 104.835938 265.140625 C 104.917969 265.550781 105.039062 265.949219 105.199219 266.335938 C 105.363281 266.726562 105.558594 267.09375 105.792969 267.441406 C 106.027344 267.789062 106.292969 268.113281 106.589844 268.40625 Z M 106.589844 268.40625 "/></g></svg>